<svg xmlns="http://www.w3.org/2000/svg" viewBox="0 0 937 452"><defs><style>.cls-1{fill:#f27baa;}.cls-1,.cls-2,.cls-3{stroke:#282561;stroke-linecap:round;stroke-linejoin:round;stroke-width:15px;}.cls-2{fill:#fff;}.cls-3,.cls-4{fill:#282561;}.cls-4{font-size:225px;font-family:Montserrat-SemiBold, Montserrat;font-weight:700;letter-spacing:0.01em;}.cls-5{letter-spacing:0.02em;}.cls-6{letter-spacing:-0.03em;}.cls-7{letter-spacing:-0.04em;}</style></defs><title>Zona Buku Color</title><g id="Warna"><path class="cls-1" d="M16.14,9.43H276A14.53,14.53,0,0,1,290.49,24V340.53a8.28,8.28,0,0,1-8.28,8.28H21.75A12.53,12.53,0,0,1,9.22,336.28V16.36A6.93,6.93,0,0,1,16.14,9.43Z"/><path class="cls-2" d="M218.9,396.28,24.27,352.17c-8.78-2-15-10.14-15-19.56V33.6c0-13.85,12.26-24.12,25.13-21.05L228.49,58.7a6.87,6.87,0,0,1,5.15,6.76V383.81C233.63,391.94,226.48,398,218.9,396.28Z"/><path class="cls-3" d="M162.8,441.61,15.43,351.94a13.25,13.25,0,0,1-6.21-11.35L8.53,22.1a7.19,7.19,0,0,1,10.84-6.22l152.15,89.33a12.51,12.51,0,0,1,5.87,10.72v316.8C177.38,440.62,169.28,445.56,162.8,441.61Z"/></g><g id="Layer_5_copy" data-name="Layer 5 copy"><text class="cls-4" transform="translate(349.57 179.09) scale(1.01 1)">Z<tspan class="cls-5" x="151.43" y="0">ona</tspan><tspan class="cls-6"><tspan x="0" y="197">Bu</tspan><tspan class="cls-7" x="310.95" y="197">k</tspan><tspan x="445.05" y="197">u</tspan></tspan></text></g></svg>