<svg xmlns="http://www.w3.org/2000/svg" viewBox="0 0 937 452"><defs><style>.cls-1{fill:none;stroke:#fff;stroke-linecap:round;stroke-linejoin:round;stroke-width:15px;}.cls-2{font-size:225px;fill:#fff;font-family:Montserrat-SemiBold, Montserrat;font-weight:700;letter-spacing:0.01em;}.cls-3{letter-spacing:0.02em;}.cls-4{letter-spacing:-0.03em;}.cls-5{letter-spacing:-0.04em;}</style></defs><title>Zona Buku White</title><g id="Hitam_Putih" data-name="Hitam Putih"><path class="cls-1" d="M290.49,24V340.53a8.28,8.28,0,0,1-8.28,8.28H233.63V65.47a6.88,6.88,0,0,0-5.14-6.77L34.35,12.55a19.48,19.48,0,0,0-12.93,1.33A21.6,21.6,0,0,0,9.22,33.6V14.46a5,5,0,0,1,5-5H276A14.53,14.53,0,0,1,290.49,24Z"/><path class="cls-1" d="M233.63,65.47V383.81c0,8.13-7.15,14.19-14.73,12.47l-41.52-9.41v-271a12.49,12.49,0,0,0-5.87-10.71L21.42,13.88a19.48,19.48,0,0,1,12.93-1.33L228.49,58.7A6.88,6.88,0,0,1,233.63,65.47Z"/><path class="cls-1" d="M177.38,115.92V432.73c0,7.89-8.1,12.83-14.58,8.88L15.43,351.94a13.26,13.26,0,0,1-6.21-11.35V33.6a21.6,21.6,0,0,1,12.2-19.72l150.09,91.33A12.49,12.49,0,0,1,177.38,115.92Z"/><path class="cls-1" d="M21.42,13.88A21.6,21.6,0,0,0,9.22,33.6v-14c0-5.86,6-9.52,10.8-6.59Z"/></g><g id="Layer_5" data-name="Layer 5"><text class="cls-2" transform="translate(349.57 179.09) scale(1.01 1)">Z<tspan class="cls-3" x="151.43" y="0">ona</tspan><tspan class="cls-4"><tspan x="0" y="197">Bu</tspan><tspan class="cls-5" x="310.95" y="197">k</tspan><tspan x="445.05" y="197">u</tspan></tspan></text></g></svg>